<svg width="4461" height="4475" viewBox="0 0 4461 4475" fill="none" xmlns="http://www.w3.org/2000/svg">
<ellipse cx="2230.87" cy="2237.4" rx="1953.01" ry="1963.04" fill="#F73E0F"/>
<path d="M4068.53 2237.16C4068.53 3257.8 3245.55 4085.18 2230.35 4085.18C1215.15 4085.18 392.165 3257.8 392.165 2237.16C392.165 1216.53 1215.15 389.137 2230.35 389.137C3245.55 389.137 4068.53 1216.53 4068.53 2237.16Z" fill="#72887C"/>
<path d="M4068.69 2237.18C4068.69 2398.62 4047.63 2559.37 4006.05 2715.31L2230.5 2237.18H4068.69Z" fill="#F2A343"/>
<path d="M417.471 2540.57C390.826 2381.34 385.064 2219.33 400.333 2058.66L2230.45 2237.18L417.471 2540.57Z" fill="#F2A343"/>
<path d="M2102.23 394.555C2263.28 383.293 2425.1 393.086 2583.56 423.684L2230.46 2237.17L2102.23 394.555Z" fill="#F2A343"/>
<path d="M660.472 1274.06C715.946 1183.53 779.082 1097.94 849.178 1018.22L2227.79 2234.51L660.472 1274.06Z" fill="#F2A343"/>
<path d="M1279.14 3817.39C1188.13 3762.71 1101.99 3700.32 1021.66 3630.92L2225.88 2241.75L1279.14 3817.39Z" fill="#F2A343"/>
<path d="M3738.24 3293.54C3677.34 3380.51 3609.1 3462.1 3534.27 3537.39L2232.48 2239.2L3738.24 3293.54Z" fill="#F2A343"/>
<path d="M3425.09 834.002C3505.82 902.954 3580.49 978.703 3648.26 1060.41L2234.37 2233.27L3425.09 834.002Z" fill="#F2A343"/>
<path d="M829.241 1039.93C898.193 959.195 973.942 884.527 1055.65 816.754L2230.45 2237.18L829.241 1039.93Z" fill="#D25827"/>
<path d="M1039.65 3645.31C958.323 3577.07 882.997 3501.97 814.513 3420.86L2221.22 2237.18L1039.65 3645.31Z" fill="#D25827"/>
<path d="M3545.93 3529.97C3471.51 3605.69 3390.74 3674.9 3304.5 3736.8L2234.84 2241.56L3545.93 3529.97Z" fill="#D25827"/>
<path d="M3641.81 1052.41C3710.05 1133.74 3771.19 1220.78 3824.55 1312.55L2232.08 2235.56L3641.81 1052.41Z" fill="#D25827"/>
<path d="M2342.67 4081.07C2181.53 4090.93 2019.8 4079.72 1861.62 4047.74L2230.45 2237.17L2342.67 4081.07Z" fill="#F2A343"/>
<path d="M2814.46 3989.58C2661.36 4040.81 2502.24 4071.84 2341.17 4081.9L2231.19 2246.38L2814.46 3989.58Z" fill="#D25827"/>
<path d="M508.725 2895.91C450.87 2745.19 412.923 2587.58 395.855 2427.1L2230.45 2237.16L508.725 2895.91Z" fill="#D25827"/>
<path d="M1662.42 479.294C1815.96 429.406 1975.35 399.76 2136.5 391.114L2230.45 2238.75L1662.42 479.294Z" fill="#D25827"/>
<path d="M4014.09 1792.46C4053.15 1949.11 4071.6 2110.17 4068.98 2271.54L2230.5 2237.16L4014.09 1792.46Z" fill="#D25827"/>
<ellipse cx="1814.35" cy="2412.15" rx="18.512" ry="21.5973" fill="white"/>
<path d="M1990 3336.66V3148.9L2653.87 3021L2724 3191.75L2367.89 3387L1990 3336.66Z" fill="url(#paint0_radial_157_267)"/>
<path fill-rule="evenodd" clip-rule="evenodd" d="M1267 3506.7C1422.72 3482.33 1782.63 3394.43 1897.62 3178.42C2103.91 3320.64 2423.02 3430.94 2750.14 3065.13C2902.31 3211.33 3230.72 3325.39 3354.23 3264.53C3252.63 3424.52 3033.75 3651.15 2731.33 3782.34L2498.05 3597.35C2492.9 3625.89 2421.53 3682.97 2177.17 3682.97L2064.82 3875.57C1820.09 3841.65 1551.47 3731.57 1267 3506.7Z" fill="url(#paint1_linear_157_267)"/>
<path d="M2176.9 3641.73C2124.07 3635.49 2127.04 3699.91 2184.58 3712.56C2420.87 3764.49 2505.5 3726.41 2528.96 3655.79C2534.61 3638.76 2515.68 3609.87 2492.44 3605.88C2454.68 3599.41 2459.06 3709.74 2176.9 3641.73Z" fill="#4D4122"/>
<path d="M1267 3546.33C1432.57 3518.95 1752.2 3403.36 1871.58 3227.52C2074.1 3327.99 2540.96 3429.39 2788.25 3031.19C2904.61 3142.34 3149.31 3343.47 3352.68 3299.51" stroke="#434219" stroke-width="68" stroke-linecap="round"/>
<path d="M1875.41 3214.5C2037.65 3313.18 2136.81 3316.8 2305.55 3322.97C2517.38 3330.72 2708.07 3177.42 2787.09 3021.04" stroke="#2C1A11" stroke-width="83" stroke-linecap="round"/>
<path d="M1941.92 3885.38L2295.74 3307.33C2381.87 3422.34 2710.09 3670.5 2772.94 3673.53C2835.79 3676.56 2840.45 3731.03 2833.46 3761.3C2819.49 3803.67 2777.59 3801.46 2738.02 3791.56C2616.98 3761.3 2425.32 3587.78 2312.03 3485.89C2214.27 3647.3 2029.21 3951.96 2014.08 3970.12C1941.92 4056.72 1904.67 3942.88 1941.92 3885.38Z" fill="#3F3812"/>
<g filter="url(#filter0_if_157_267)">
<path d="M2838 2510C2838 2897.16 2520.29 3204.57 2162 3219.5C1669.5 3240.02 1793.5 2911.5 1525 2869.5C1811.5 1960.5 1908.9 1655.5 2267.5 1655.5C2626.1 1655.5 2838 2122.84 2838 2510Z" fill="url(#paint2_linear_157_267)"/>
</g>
<path d="M1697.69 2372.6C1662.03 2325.42 1595.47 2346.86 1602.61 2409.06C1590.72 2681.45 1477.34 2859.31 1462.36 2904.35C1445.24 2955.83 1498.02 2974.13 1519.41 2975.13C1595.48 2978.71 1711.95 2988 1749.98 2988C1854.58 2988 1811.79 2897.92 1757.12 2897.92C1721.46 2897.92 1602.61 2887.2 1583.59 2887.2C1697.69 2683.44 1697.69 2464.83 1697.69 2372.6Z" fill="#954F14"/>
<ellipse cx="1866.85" cy="2518.35" rx="70.8536" ry="84.3496" fill="#2D1E27"/>
<path d="M1770.5 3083.21C1954.5 3219.5 2287.91 3291.67 2593 3065C2803.93 2908.29 3063.44 2459.05 2605.57 1847.54" stroke="#9E530B" stroke-width="75" stroke-linecap="round"/>
<ellipse cx="1843.49" cy="2506.35" rx="18.512" ry="21.5973" fill="white"/>
<ellipse cx="2035.9" cy="857.588" rx="609.659" ry="129.584" transform="rotate(-4.07581 2035.9 857.588)" fill="#F1CE7F"/>
<path d="M1604.06 1928.33C1725.06 1537.17 1680.51 1355.73 1492.22 985.761C1969.51 1023.87 2264.69 1011.22 2721.72 904C2548.9 1297.5 2487.17 1483.31 2724.04 1735.43C2129.2 2006.9 1929.56 2161.95 1356.46 2355.65L1186 2255.37L1254.65 1984.64L1259.7 2003.03C1290.79 1935 1395.15 1912.8 1604.06 1928.33Z" fill="#ECB659"/>
<path d="M2151.14 1020.22C2094.45 971.707 1976.67 1088.11 2002.11 1120C2157.29 1342.96 2394.47 1324.99 2436.18 1300.49C2457.29 1288.08 2526.63 1184.24 2500.21 1167.16C2457.28 1139.4 2370.87 1244.35 2151.14 1020.22Z" fill="#B97B1B"/>
<path d="M2384.59 1685.55C2371.8 1690.13 2371.8 1707.03 2384.59 1741.55C2389.9 1756.03 2397.15 1774.13 2400.77 1781.86C2404.15 1789.82 2407.04 1796.82 2406.8 1797.79C2406.56 1798.51 2414.28 1795.13 2423.7 1789.82C2433.11 1784.75 2441.56 1780.41 2442.77 1780.41C2446.39 1780.41 2430.46 1735.75 2415.01 1702.93C2407.04 1686.51 2397.39 1680.96 2384.59 1685.55Z" fill="#E2A343"/>
<path d="M1760.28 1882C1753.83 1963.81 1695.74 2124.16 1515 2111.11L1760.28 1882Z" fill="url(#paint3_linear_157_267)" fill-opacity="0.5"/>
<path d="M2797.82 1607.29C2797.08 1608.12 2788.89 1610.06 2779.46 1611.72C2760.35 1615.04 2725.36 1627.49 2702.53 1639.39C2694.34 1643.54 2682.18 1649.35 2675.24 1652.11C2659.85 1658.2 2554.88 1716.57 2501.53 1748.67C2194.82 1933.47 1997.54 2043.3 1755.85 2163.65C1716.89 2183.01 1663.04 2210.13 1636.24 2223.41C1587.85 2247.75 1527.8 2272.37 1499.01 2279.84C1475.93 2285.65 1421.59 2293.12 1400.99 2293.12C1352.6 2292.85 1309.92 2276.8 1286.1 2250.24C1270.47 2232.81 1263.02 2216.77 1258.06 2189.38C1254.58 2171.12 1254.83 2166.69 1258.06 2148.16C1263.02 2122.98 1277.66 2088.67 1292.8 2067.37C1315.13 2036.39 1354.84 2007.89 1396.03 1993.5C1437.72 1978.84 1456.83 1975.8 1510.18 1976.08C1559.81 1976.35 1567.25 1977.18 1630.53 1992.12C1680.41 2003.74 1703.98 2001.25 1722.59 1981.89C1739.22 1964.73 1745.67 1947.58 1748.4 1911.89C1750.14 1888.93 1750.14 1881.18 1747.66 1879.52C1746.17 1878.42 1735.75 1875.1 1724.83 1871.78C1713.91 1868.73 1687.11 1859.33 1665.27 1851.3C1643.43 1843 1619.36 1835.53 1611.92 1834.7C1604.47 1833.87 1591.07 1831.94 1582.14 1830.28C1557.08 1826.13 1453.1 1826.68 1429.53 1831.38C1336.72 1849.64 1261.78 1890.87 1207.93 1953.11C1196.02 1966.95 1180.64 1987.7 1173.44 1999.31C1100.73 2117.72 1103.71 2244.43 1181.88 2344.03C1213.14 2383.87 1277.17 2424.81 1326.55 2436.43C1361.29 2444.45 1437.97 2445.28 1479.16 2438.09C1516.88 2431.45 1519.11 2430.9 1529.53 2426.47C1544.67 2420.11 1587.35 2413.19 1590.33 2416.51C1598.02 2425.09 1633.01 2410.98 1647.9 2393.55C1660.31 2378.61 1665.27 2375.57 1724.08 2346.24C1750.39 2332.96 1789.35 2313.32 1810.44 2302.53C1831.53 2292.02 1866.77 2274.31 1888.6 2263.24C1985.38 2214.83 2264.55 2061.29 2360.09 2004.02C2510.22 1913.83 2521.38 1907.74 2533.05 1907.74C2542.97 1907.74 2548.43 1904.7 2578.95 1883.12C2598.06 1869.56 2621.88 1853.79 2631.81 1848.26C2641.98 1842.45 2658.11 1832.49 2667.79 1826.13C2691.61 1810.08 2735.04 1786.01 2763.08 1773.56C2781.2 1765.54 2790.38 1763.05 2802.78 1762.77C2824.87 1762.5 2832.81 1767.75 2832.81 1783.52C2832.81 1793.48 2831.07 1796.8 2814.45 1816.17C2790.63 1844.11 2784.67 1856.56 2784.67 1880.35C2784.42 1930.98 2824.13 1961.14 2871.03 1945.37C2913.71 1930.98 2959.12 1872.33 2970.29 1817.28C2983.69 1750.88 2960.36 1684.76 2908 1641.05C2896.09 1631.09 2881.2 1620.85 2875 1618.64C2854.4 1610.61 2801.79 1602.87 2797.82 1607.29Z" fill="url(#paint4_linear_157_267)"/>
<path d="M2111 1741.5C1978.5 1824.13 1808 1818.5 1674 1802C1674 1611.62 1748.53 1376.75 1397.03 917.367M1397.03 917.367C1621.87 1025.83 2287.03 1128.37 2694.53 846.868M1397.03 917.367C1353.03 724.248 2729.53 612.925 2694.53 846.868M2694.53 846.868C2574.2 980.856 2606.03 1415.87 2638.1 1581.52" stroke="#B97B1B" stroke-width="123" stroke-linecap="round"/>
<g style="mix-blend-mode:multiply">
<path d="M2677.5 1086.5C2385.96 1343.71 1766.59 1456.41 1653.5 1415.5C1673.5 1480 1657 1670 1622 1790C2091.28 1841.99 2561.17 1578.54 2684 1472.5C2671.5 1403.5 2663.5 1180.5 2677.5 1086.5Z" fill="#BB835B"/>
</g>
<path d="M1613 1832.5C1613 1655.5 1607.5 1439.5 1585.5 1385C1632.63 1394.18 1749.99 1421.65 1844.25 1412.32C1946.56 1402.21 1987.95 1389.33 1992.54 1388.21C2029.33 1379.27 2071.86 1360.65 2113.25 1342.28C2148.11 1326.8 2173.03 1357.21 2179.92 1370.99C2184.14 1383.23 2188.89 1412.55 2174.18 1431.84C2159.46 1451.14 2106.73 1473.57 2082.21 1482.37C2043.13 1496.4 1964.69 1504.19 1967.25 1537.49C1969.55 1567.34 1975.3 1629.35 1961.51 1647.72C1928.82 1691.24 1884.95 1655.99 1882.19 1647.72C1879.43 1639.45 1871.07 1591.45 1867.24 1568.49C1864.56 1552.41 1859.58 1544.37 1854.6 1539.78C1819.65 1515.9 1751.9 1528.3 1754.58 1552.41C1761.48 1614.42 1760.33 1743.02 1760.33 1748.77C1760.33 1754.51 1769.53 1759.1 1771.83 1759.1C1878.38 1792.17 2039.24 1735.37 2106.35 1702.84C2125.89 1695.95 2168.66 1689.29 2183.37 1717.76C2198.09 1746.24 2184.91 1768.67 2176.47 1776.32C1954.84 1924.22 1705.35 1878.04 1613 1832.5Z" fill="#6E340E"/>
<defs>
<filter id="filter0_if_157_267" x="1454" y="1584.5" width="1455" height="1706.92" filterUnits="userSpaceOnUse" color-interpolation-filters="sRGB">
<feFlood flood-opacity="0" result="BackgroundImageFix"/>
<feBlend mode="normal" in="SourceGraphic" in2="BackgroundImageFix" result="shape"/>
<feColorMatrix in="SourceAlpha" type="matrix" values="0 0 0 0 0 0 0 0 0 0 0 0 0 0 0 0 0 0 127 0" result="hardAlpha"/>
<feOffset dx="86" dy="4"/>
<feGaussianBlur stdDeviation="2"/>
<feComposite in2="hardAlpha" operator="arithmetic" k2="-1" k3="1"/>
<feColorMatrix type="matrix" values="0 0 0 0 0 0 0 0 0 0 0 0 0 0 0 0 0 0 0.25 0"/>
<feBlend mode="normal" in2="shape" result="effect1_innerShadow_157_267"/>
<feGaussianBlur stdDeviation="35.5" result="effect2_foregroundBlur_157_267"/>
</filter>
<radialGradient id="paint0_radial_157_267" cx="0" cy="0" r="1" gradientUnits="userSpaceOnUse" gradientTransform="translate(2030.17 3290.4) rotate(-10.2268) scale(705.029 1411.52)">
<stop stop-color="#412C1D"/>
<stop offset="0.520833" stop-color="#45301F"/>
<stop offset="1" stop-color="#553F2D"/>
</radialGradient>
<linearGradient id="paint1_linear_157_267" x1="2306.76" y1="3065.02" x2="2306.76" y2="3967.48" gradientUnits="userSpaceOnUse">
<stop stop-color="#688148"/>
<stop offset="1" stop-color="#5C7738"/>
</linearGradient>
<linearGradient id="paint2_linear_157_267" x1="1732.72" y1="2123.79" x2="2156.18" y2="3234.06" gradientUnits="userSpaceOnUse">
<stop offset="0.0756385" stop-color="#BC7028"/>
<stop offset="0.177083" stop-color="#F28E30"/>
</linearGradient>
<linearGradient id="paint3_linear_157_267" x1="1760.76" y1="2067.79" x2="1507.29" y2="1882" gradientUnits="userSpaceOnUse">
<stop stop-color="#B86F0D"/>
<stop offset="0.294192" stop-color="#E6890A" stop-opacity="0.649307"/>
<stop offset="0.838886" stop-color="#E6890A" stop-opacity="0"/>
</linearGradient>
<linearGradient id="paint4_linear_157_267" x1="2974.21" y1="1813.61" x2="1415.25" y2="1883.35" gradientUnits="userSpaceOnUse">
<stop stop-color="#6E340E"/>
<stop offset="1" stop-color="#BC8523"/>
</linearGradient>
</defs>
</svg>
